<mxfile host="app.diagrams.net" modified="2024-07-15T09:05:19.635Z" agent="Mozilla/5.0 (Windows NT 10.0; Win64; x64) AppleWebKit/537.36 (KHTML, like Gecko) Chrome/126.0.0.0 Safari/537.36" etag="6xb0jYCF_q7Gxp_Bc-Gs" version="24.6.5" type="github">
  <diagram name="Page-1" id="A67y_53Xcb9LvcjBFK2e">
    <mxGraphModel dx="2284" dy="1838" grid="1" gridSize="10" guides="1" tooltips="1" connect="1" arrows="1" fold="1" page="1" pageScale="1" pageWidth="850" pageHeight="1100" math="0" shadow="0">
      <root>
        <mxCell id="0" />
        <mxCell id="1" parent="0" />
        <mxCell id="3wQzCLE45Nl8WPakzI7t-23" value="&lt;font color=&quot;#7f00ff&quot; style=&quot;font-size: 14px;&quot;&gt;&lt;b&gt;vpc-1&lt;/b&gt;&lt;/font&gt;" style="points=[[0,0],[0.25,0],[0.5,0],[0.75,0],[1,0],[1,0.25],[1,0.5],[1,0.75],[1,1],[0.75,1],[0.5,1],[0.25,1],[0,1],[0,0.75],[0,0.5],[0,0.25]];outlineConnect=0;gradientColor=none;html=1;whiteSpace=wrap;fontSize=12;fontStyle=0;container=1;pointerEvents=0;collapsible=0;recursiveResize=0;shape=mxgraph.aws4.group;grIcon=mxgraph.aws4.group_vpc2;strokeColor=#8C4FFF;fillColor=none;verticalAlign=top;align=left;spacingLeft=30;fontColor=#AAB7B8;dashed=0;" parent="1" vertex="1">
          <mxGeometry x="-120" y="-100" width="1120" height="660" as="geometry" />
        </mxCell>
        <mxCell id="3wQzCLE45Nl8WPakzI7t-1" value="&lt;font style=&quot;font-size: 15px;&quot;&gt;us-east-1&amp;nbsp;&lt;/font&gt;" style="points=[[0,0],[0.25,0],[0.5,0],[0.75,0],[1,0],[1,0.25],[1,0.5],[1,0.75],[1,1],[0.75,1],[0.5,1],[0.25,1],[0,1],[0,0.75],[0,0.5],[0,0.25]];outlineConnect=0;gradientColor=none;html=1;whiteSpace=wrap;fontSize=12;fontStyle=0;container=1;pointerEvents=0;collapsible=0;recursiveResize=0;shape=mxgraph.aws4.group;grIcon=mxgraph.aws4.group_region;strokeColor=#00A4A6;fillColor=none;verticalAlign=top;align=left;spacingLeft=30;fontColor=#147EBA;dashed=1;strokeWidth=2;" parent="1" vertex="1">
          <mxGeometry x="-140" y="-130" width="1150" height="750" as="geometry" />
        </mxCell>
        <mxCell id="3wQzCLE45Nl8WPakzI7t-75" value="&lt;font style=&quot;font-size: 14px;&quot;&gt;Availability Zone : us-west-2a&lt;/font&gt;&lt;div style=&quot;font-size: 14px;&quot;&gt;&lt;br&gt;&lt;/div&gt;" style="fillColor=none;strokeColor=#147EBA;dashed=1;verticalAlign=top;fontStyle=0;fontColor=#147EBA;whiteSpace=wrap;html=1;" parent="3wQzCLE45Nl8WPakzI7t-1" vertex="1">
          <mxGeometry x="120" y="-60" width="910" height="780" as="geometry" />
        </mxCell>
        <mxCell id="3wQzCLE45Nl8WPakzI7t-5" value="Private subnet" style="points=[[0,0],[0.25,0],[0.5,0],[0.75,0],[1,0],[1,0.25],[1,0.5],[1,0.75],[1,1],[0.75,1],[0.5,1],[0.25,1],[0,1],[0,0.75],[0,0.5],[0,0.25]];outlineConnect=0;gradientColor=none;html=1;whiteSpace=wrap;fontSize=12;fontStyle=0;container=1;pointerEvents=0;collapsible=0;recursiveResize=0;shape=mxgraph.aws4.group;grIcon=mxgraph.aws4.group_security_group;grStroke=0;strokeColor=#00A4A6;fillColor=#E6F6F7;verticalAlign=top;align=left;spacingLeft=30;fontColor=#147EBA;dashed=0;" parent="3wQzCLE45Nl8WPakzI7t-1" vertex="1">
          <mxGeometry x="150" y="100" width="400" height="530" as="geometry" />
        </mxCell>
        <mxCell id="3wQzCLE45Nl8WPakzI7t-17" value="" style="sketch=0;outlineConnect=0;fontColor=#232F3E;gradientColor=none;fillColor=#8C4FFF;strokeColor=none;dashed=0;verticalLabelPosition=bottom;verticalAlign=top;align=center;html=1;fontSize=12;fontStyle=0;aspect=fixed;pointerEvents=1;shape=mxgraph.aws4.route_table;" parent="3wQzCLE45Nl8WPakzI7t-5" vertex="1">
          <mxGeometry x="350" width="50" height="48.72" as="geometry" />
        </mxCell>
        <mxCell id="3wQzCLE45Nl8WPakzI7t-68" value="CIDR : 10.0.16.0/20" style="text;html=1;align=center;verticalAlign=middle;whiteSpace=wrap;rounded=0;fillColor=#fff2cc;strokeColor=#d6b656;" parent="3wQzCLE45Nl8WPakzI7t-5" vertex="1">
          <mxGeometry y="30" width="120" height="30" as="geometry" />
        </mxCell>
        <mxCell id="3wQzCLE45Nl8WPakzI7t-70" value="&lt;font style=&quot;font-size: 13px;&quot;&gt;- 0.0.0.0/0&amp;nbsp; &amp;nbsp; &amp;nbsp; &amp;nbsp;-&amp;nbsp; &amp;nbsp;&lt;/font&gt;&lt;span style=&quot;color: rgb(6, 125, 23); font-family: &amp;quot;JetBrains Mono&amp;quot;, monospace; font-size: 9.8pt; text-align: center; background-color: initial;&quot;&gt;nat-ec2-i1&lt;/span&gt;&lt;div style=&quot;font-size: 13px;&quot;&gt;&lt;font style=&quot;font-size: 13px;&quot;&gt;- subnet CIRD -&amp;nbsp; &amp;nbsp;local&lt;/font&gt;&lt;/div&gt;&lt;div style=&quot;font-size: 13px;&quot;&gt;&lt;font style=&quot;font-size: 13px;&quot;&gt;- 0.00.0/0&amp;nbsp; &amp;nbsp; &amp;nbsp; &amp;nbsp; -&amp;nbsp; &amp;nbsp;Nat gateway&lt;/font&gt;&lt;/div&gt;" style="text;html=1;align=left;verticalAlign=middle;whiteSpace=wrap;rounded=0;fillColor=#e1d5e7;strokeColor=#9673a6;" parent="3wQzCLE45Nl8WPakzI7t-5" vertex="1">
          <mxGeometry x="160" y="8.72" width="180" height="61.28" as="geometry" />
        </mxCell>
        <mxCell id="3wQzCLE45Nl8WPakzI7t-6" value="Public subnet" style="points=[[0,0],[0.25,0],[0.5,0],[0.75,0],[1,0],[1,0.25],[1,0.5],[1,0.75],[1,1],[0.75,1],[0.5,1],[0.25,1],[0,1],[0,0.75],[0,0.5],[0,0.25]];outlineConnect=0;gradientColor=none;html=1;whiteSpace=wrap;fontSize=12;fontStyle=0;container=1;pointerEvents=0;collapsible=0;recursiveResize=0;shape=mxgraph.aws4.group;grIcon=mxgraph.aws4.group_security_group;grStroke=0;strokeColor=#7AA116;fillColor=#F2F6E8;verticalAlign=top;align=left;spacingLeft=30;fontColor=#248814;dashed=0;" parent="3wQzCLE45Nl8WPakzI7t-1" vertex="1">
          <mxGeometry x="580" y="100" width="390" height="530" as="geometry" />
        </mxCell>
        <mxCell id="3wQzCLE45Nl8WPakzI7t-14" value="Security group" style="fillColor=none;strokeColor=#DD3522;verticalAlign=top;fontStyle=0;fontColor=#DD3522;whiteSpace=wrap;html=1;" parent="3wQzCLE45Nl8WPakzI7t-6" vertex="1">
          <mxGeometry x="50" y="300" width="310" height="120" as="geometry" />
        </mxCell>
        <mxCell id="3wQzCLE45Nl8WPakzI7t-20" value="" style="sketch=0;points=[[0,0,0],[0.25,0,0],[0.5,0,0],[0.75,0,0],[1,0,0],[0,1,0],[0.25,1,0],[0.5,1,0],[0.75,1,0],[1,1,0],[0,0.25,0],[0,0.5,0],[0,0.75,0],[1,0.25,0],[1,0.5,0],[1,0.75,0]];outlineConnect=0;fontColor=#232F3E;fillColor=#ED7100;strokeColor=#ffffff;dashed=0;verticalLabelPosition=bottom;verticalAlign=top;align=center;html=1;fontSize=12;fontStyle=0;aspect=fixed;shape=mxgraph.aws4.resourceIcon;resIcon=mxgraph.aws4.ec2;" parent="3wQzCLE45Nl8WPakzI7t-6" vertex="1">
          <mxGeometry x="260" y="320" width="78" height="78" as="geometry" />
        </mxCell>
        <mxCell id="3wQzCLE45Nl8WPakzI7t-21" value="" style="sketch=0;outlineConnect=0;fontColor=#232F3E;gradientColor=none;fillColor=#ED7100;strokeColor=none;dashed=0;verticalLabelPosition=bottom;verticalAlign=top;align=center;html=1;fontSize=12;fontStyle=0;aspect=fixed;pointerEvents=1;shape=mxgraph.aws4.elastic_ip_address;" parent="3wQzCLE45Nl8WPakzI7t-6" vertex="1">
          <mxGeometry x="212" y="360" width="48" height="20" as="geometry" />
        </mxCell>
        <mxCell id="3wQzCLE45Nl8WPakzI7t-13" value="Security group" style="fillColor=none;strokeColor=#DD3522;verticalAlign=top;fontStyle=0;fontColor=#DD3522;whiteSpace=wrap;html=1;" parent="3wQzCLE45Nl8WPakzI7t-6" vertex="1">
          <mxGeometry x="50" y="150" width="310" height="110" as="geometry" />
        </mxCell>
        <mxCell id="3wQzCLE45Nl8WPakzI7t-19" value="" style="sketch=0;points=[[0,0,0],[0.25,0,0],[0.5,0,0],[0.75,0,0],[1,0,0],[0,1,0],[0.25,1,0],[0.5,1,0],[0.75,1,0],[1,1,0],[0,0.25,0],[0,0.5,0],[0,0.75,0],[1,0.25,0],[1,0.5,0],[1,0.75,0]];outlineConnect=0;fontColor=#232F3E;fillColor=#ED7100;strokeColor=#ffffff;dashed=0;verticalLabelPosition=bottom;verticalAlign=top;align=center;html=1;fontSize=12;fontStyle=0;aspect=fixed;shape=mxgraph.aws4.resourceIcon;resIcon=mxgraph.aws4.ec2;" parent="3wQzCLE45Nl8WPakzI7t-6" vertex="1">
          <mxGeometry x="260" y="166" width="78" height="78" as="geometry" />
        </mxCell>
        <mxCell id="3wQzCLE45Nl8WPakzI7t-28" value="&lt;div style=&quot;background-color:#ffffff;color:#080808&quot;&gt;&lt;pre style=&quot;font-family:&#39;JetBrains Mono&#39;,monospace;font-size:9.8pt;&quot;&gt;&lt;span style=&quot;color:#067d17;&quot;&gt;nat-ec2-i1&lt;/span&gt;&lt;/pre&gt;&lt;/div&gt;" style="text;html=1;align=center;verticalAlign=middle;whiteSpace=wrap;rounded=0;" parent="3wQzCLE45Nl8WPakzI7t-6" vertex="1">
          <mxGeometry x="269" y="390" width="60" height="30" as="geometry" />
        </mxCell>
        <mxCell id="3wQzCLE45Nl8WPakzI7t-29" value="&lt;font style=&quot;font-size: 13px;&quot;&gt;elastic-ip-1&lt;/font&gt;" style="text;html=1;align=center;verticalAlign=middle;whiteSpace=wrap;rounded=0;" parent="3wQzCLE45Nl8WPakzI7t-6" vertex="1">
          <mxGeometry x="132" y="355" width="80" height="30" as="geometry" />
        </mxCell>
        <mxCell id="3wQzCLE45Nl8WPakzI7t-31" value="&lt;font style=&quot;font-size: 13px;&quot;&gt;public-ip-1&lt;/font&gt;" style="text;html=1;align=center;verticalAlign=middle;whiteSpace=wrap;rounded=0;" parent="3wQzCLE45Nl8WPakzI7t-6" vertex="1">
          <mxGeometry x="180" y="180" width="80" height="30" as="geometry" />
        </mxCell>
        <mxCell id="3wQzCLE45Nl8WPakzI7t-32" value="&lt;font style=&quot;font-size: 13px;&quot;&gt;private-ip-1&lt;/font&gt;" style="text;html=1;align=center;verticalAlign=middle;whiteSpace=wrap;rounded=0;" parent="3wQzCLE45Nl8WPakzI7t-6" vertex="1">
          <mxGeometry x="180" y="210" width="80" height="30" as="geometry" />
        </mxCell>
        <mxCell id="3wQzCLE45Nl8WPakzI7t-69" value="CIDR : 10.0.0.0/24" style="text;html=1;align=center;verticalAlign=middle;whiteSpace=wrap;rounded=0;fillColor=#fff2cc;strokeColor=#d6b656;" parent="3wQzCLE45Nl8WPakzI7t-6" vertex="1">
          <mxGeometry x="30" y="30" width="120" height="30" as="geometry" />
        </mxCell>
        <mxCell id="3wQzCLE45Nl8WPakzI7t-39" value="&lt;font style=&quot;font-size: 13px;&quot;&gt;- 0.0.0.0/0&amp;nbsp; &amp;nbsp; &amp;nbsp; &amp;nbsp;-&amp;nbsp; &amp;nbsp;&lt;font color=&quot;#ff3399&quot;&gt;igw-1&lt;/font&gt;&lt;/font&gt;&lt;div style=&quot;font-size: 13px;&quot;&gt;&lt;font style=&quot;font-size: 13px;&quot;&gt;- subnet CIRD -&amp;nbsp; &amp;nbsp;local&lt;/font&gt;&lt;/div&gt;" style="text;html=1;align=left;verticalAlign=middle;whiteSpace=wrap;rounded=0;fillColor=#e1d5e7;strokeColor=#9673a6;" parent="3wQzCLE45Nl8WPakzI7t-6" vertex="1">
          <mxGeometry x="189" y="10" width="140" height="40" as="geometry" />
        </mxCell>
        <mxCell id="3wQzCLE45Nl8WPakzI7t-37" value="&lt;div style=&quot;background-color:#ffffff;color:#080808&quot;&gt;&lt;pre style=&quot;font-family:&#39;JetBrains Mono&#39;,monospace;font-size:9.8pt;&quot;&gt;&lt;span style=&quot;color:#067d17;&quot;&gt;rtb-explicit-1-public-vpc1&lt;/span&gt;&lt;/pre&gt;&lt;/div&gt;" style="text;html=1;align=center;verticalAlign=middle;whiteSpace=wrap;rounded=0;fillColor=#e1d5e7;strokeColor=#9673a6;" parent="3wQzCLE45Nl8WPakzI7t-6" vertex="1">
          <mxGeometry x="180" y="60" width="200" height="30" as="geometry" />
        </mxCell>
        <mxCell id="lTsZ9QhnL7NKHDbEhiwh-5" value="Old" style="text;html=1;align=center;verticalAlign=middle;whiteSpace=wrap;rounded=0;fillColor=#ffff88;strokeColor=#36393d;" vertex="1" parent="3wQzCLE45Nl8WPakzI7t-6">
          <mxGeometry x="72" y="380" width="60" height="30" as="geometry" />
        </mxCell>
        <mxCell id="3wQzCLE45Nl8WPakzI7t-24" style="edgeStyle=orthogonalEdgeStyle;rounded=0;orthogonalLoop=1;jettySize=auto;html=1;" parent="3wQzCLE45Nl8WPakzI7t-1" source="3wQzCLE45Nl8WPakzI7t-16" target="3wQzCLE45Nl8WPakzI7t-22" edge="1">
          <mxGeometry relative="1" as="geometry" />
        </mxCell>
        <mxCell id="3wQzCLE45Nl8WPakzI7t-16" value="" style="sketch=0;outlineConnect=0;fontColor=#232F3E;gradientColor=none;fillColor=#8C4FFF;strokeColor=none;dashed=0;verticalLabelPosition=bottom;verticalAlign=top;align=center;html=1;fontSize=12;fontStyle=0;aspect=fixed;pointerEvents=1;shape=mxgraph.aws4.route_table;" parent="3wQzCLE45Nl8WPakzI7t-1" vertex="1">
          <mxGeometry x="920" y="100" width="50" height="48.72" as="geometry" />
        </mxCell>
        <mxCell id="3wQzCLE45Nl8WPakzI7t-10" value="Security group" style="fillColor=none;strokeColor=#DD3522;verticalAlign=top;fontStyle=0;fontColor=#DD3522;whiteSpace=wrap;html=1;" parent="3wQzCLE45Nl8WPakzI7t-1" vertex="1">
          <mxGeometry x="170" y="390" width="340" height="114" as="geometry" />
        </mxCell>
        <mxCell id="3wQzCLE45Nl8WPakzI7t-18" value="" style="sketch=0;points=[[0,0,0],[0.25,0,0],[0.5,0,0],[0.75,0,0],[1,0,0],[0,1,0],[0.25,1,0],[0.5,1,0],[0.75,1,0],[1,1,0],[0,0.25,0],[0,0.5,0],[0,0.75,0],[1,0.25,0],[1,0.5,0],[1,0.75,0]];outlineConnect=0;fontColor=#232F3E;fillColor=#ED7100;strokeColor=#ffffff;dashed=0;verticalLabelPosition=bottom;verticalAlign=top;align=center;html=1;fontSize=12;fontStyle=0;aspect=fixed;shape=mxgraph.aws4.resourceIcon;resIcon=mxgraph.aws4.ec2;" parent="3wQzCLE45Nl8WPakzI7t-1" vertex="1">
          <mxGeometry x="420" y="420" width="78" height="78" as="geometry" />
        </mxCell>
        <mxCell id="3wQzCLE45Nl8WPakzI7t-22" value="" style="sketch=0;outlineConnect=0;fillColor=#d80073;strokeColor=#A50040;dashed=0;verticalLabelPosition=bottom;verticalAlign=top;align=center;html=1;fontSize=12;fontStyle=0;aspect=fixed;pointerEvents=1;shape=mxgraph.aws4.internet_gateway;fontColor=#ffffff;" parent="3wQzCLE45Nl8WPakzI7t-1" vertex="1">
          <mxGeometry x="1090" y="210" width="50" height="50" as="geometry" />
        </mxCell>
        <mxCell id="3wQzCLE45Nl8WPakzI7t-27" style="edgeStyle=orthogonalEdgeStyle;rounded=0;orthogonalLoop=1;jettySize=auto;html=1;entryX=0;entryY=0.5;entryDx=0;entryDy=0;" parent="3wQzCLE45Nl8WPakzI7t-1" source="3wQzCLE45Nl8WPakzI7t-17" target="3wQzCLE45Nl8WPakzI7t-14" edge="1">
          <mxGeometry relative="1" as="geometry" />
        </mxCell>
        <mxCell id="3wQzCLE45Nl8WPakzI7t-33" value="&lt;font style=&quot;font-size: 13px;&quot;&gt;private-ip-2&lt;/font&gt;" style="text;html=1;align=center;verticalAlign=middle;whiteSpace=wrap;rounded=0;" parent="3wQzCLE45Nl8WPakzI7t-1" vertex="1">
          <mxGeometry x="418" y="390" width="80" height="30" as="geometry" />
        </mxCell>
        <mxCell id="3wQzCLE45Nl8WPakzI7t-34" value="" style="sketch=0;outlineConnect=0;fontColor=#232F3E;gradientColor=none;fillColor=#8C4FFF;strokeColor=none;dashed=0;verticalLabelPosition=bottom;verticalAlign=top;align=center;html=1;fontSize=12;fontStyle=0;aspect=fixed;pointerEvents=1;shape=mxgraph.aws4.route_table;" parent="3wQzCLE45Nl8WPakzI7t-1" vertex="1">
          <mxGeometry x="1080" y="627.54" width="60" height="58.46" as="geometry" />
        </mxCell>
        <mxCell id="3wQzCLE45Nl8WPakzI7t-35" value="rtb-main" style="text;html=1;align=center;verticalAlign=middle;whiteSpace=wrap;rounded=0;fillColor=#e1d5e7;strokeColor=#9673a6;" parent="3wQzCLE45Nl8WPakzI7t-1" vertex="1">
          <mxGeometry x="1080" y="590" width="60" height="30" as="geometry" />
        </mxCell>
        <mxCell id="3wQzCLE45Nl8WPakzI7t-38" value="igw-1" style="text;html=1;align=center;verticalAlign=middle;whiteSpace=wrap;rounded=0;" parent="3wQzCLE45Nl8WPakzI7t-1" vertex="1">
          <mxGeometry x="1030" y="40" width="60" height="30" as="geometry" />
        </mxCell>
        <mxCell id="3wQzCLE45Nl8WPakzI7t-30" value="&lt;span style=&quot;background-color: rgb(255, 204, 230);&quot;&gt;inbound : SSH, HHTP/S, ICMP&lt;/span&gt;" style="text;html=1;align=center;verticalAlign=middle;whiteSpace=wrap;rounded=0;" parent="3wQzCLE45Nl8WPakzI7t-1" vertex="1">
          <mxGeometry x="170" y="474" width="180" height="30" as="geometry" />
        </mxCell>
        <mxCell id="3wQzCLE45Nl8WPakzI7t-40" value="CIDR-1 : 10.0.0.0/16" style="text;html=1;align=center;verticalAlign=middle;whiteSpace=wrap;rounded=0;fillColor=#fff2cc;strokeColor=#d6b656;" parent="3wQzCLE45Nl8WPakzI7t-1" vertex="1">
          <mxGeometry x="20" y="70" width="120" height="30" as="geometry" />
        </mxCell>
        <mxCell id="3wQzCLE45Nl8WPakzI7t-36" value="&lt;div style=&quot;background-color:#ffffff;color:#080808&quot;&gt;&lt;pre style=&quot;font-family:&#39;JetBrains Mono&#39;,monospace;font-size:9.8pt;&quot;&gt;&lt;span style=&quot;color:#067d17;&quot;&gt;rtb-explicit-1-private-vpc1&lt;/span&gt;&lt;/pre&gt;&lt;/div&gt;" style="text;html=1;align=center;verticalAlign=middle;whiteSpace=wrap;rounded=0;fillColor=#e1d5e7;strokeColor=#9673a6;" parent="3wQzCLE45Nl8WPakzI7t-1" vertex="1">
          <mxGeometry x="310" y="180" width="200" height="30" as="geometry" />
        </mxCell>
        <mxCell id="3wQzCLE45Nl8WPakzI7t-71" value="&lt;br&gt;&lt;div style=&quot;font-size: 13px;&quot;&gt;&lt;font style=&quot;font-size: 13px;&quot;&gt;- VPC CIDR-1 -&amp;nbsp; &amp;nbsp;local&lt;/font&gt;&lt;/div&gt;" style="text;html=1;align=left;verticalAlign=middle;whiteSpace=wrap;rounded=0;fillColor=#e1d5e7;strokeColor=#9673a6;" parent="3wQzCLE45Nl8WPakzI7t-1" vertex="1">
          <mxGeometry x="931" y="646" width="140" height="40" as="geometry" />
        </mxCell>
        <mxCell id="lTsZ9QhnL7NKHDbEhiwh-3" value="Nat gateway" style="text;html=1;align=center;verticalAlign=middle;whiteSpace=wrap;rounded=0;fillColor=#eeeeee;strokeColor=#36393d;" vertex="1" parent="3wQzCLE45Nl8WPakzI7t-1">
          <mxGeometry x="910" y="-50" width="60" height="30" as="geometry" />
        </mxCell>
        <mxCell id="lTsZ9QhnL7NKHDbEhiwh-1" value="" style="sketch=0;outlineConnect=0;dashed=0;verticalLabelPosition=bottom;verticalAlign=top;align=center;html=1;fontSize=12;fontStyle=0;aspect=fixed;shape=mxgraph.aws4.resourceIcon;resIcon=mxgraph.aws4.nat_gateway;fillColor=#eeeeee;strokeColor=#36393d;" vertex="1" parent="3wQzCLE45Nl8WPakzI7t-1">
          <mxGeometry x="980" y="-60" width="50" height="50" as="geometry" />
        </mxCell>
        <mxCell id="3wQzCLE45Nl8WPakzI7t-25" value="" style="sketch=0;outlineConnect=0;fontColor=#232F3E;gradientColor=none;fillColor=#232F3D;strokeColor=none;dashed=0;verticalLabelPosition=bottom;verticalAlign=top;align=center;html=1;fontSize=12;fontStyle=0;aspect=fixed;pointerEvents=1;shape=mxgraph.aws4.traditional_server;" parent="1" vertex="1">
          <mxGeometry x="1120" y="-110" width="45" height="78" as="geometry" />
        </mxCell>
        <mxCell id="3wQzCLE45Nl8WPakzI7t-26" style="edgeStyle=orthogonalEdgeStyle;rounded=0;orthogonalLoop=1;jettySize=auto;html=1;entryX=0;entryY=0.449;entryDx=0;entryDy=0;entryPerimeter=0;" parent="1" source="3wQzCLE45Nl8WPakzI7t-22" target="3wQzCLE45Nl8WPakzI7t-25" edge="1">
          <mxGeometry relative="1" as="geometry" />
        </mxCell>
        <mxCell id="3wQzCLE45Nl8WPakzI7t-73" style="edgeStyle=orthogonalEdgeStyle;rounded=0;orthogonalLoop=1;jettySize=auto;html=1;" parent="1" source="3wQzCLE45Nl8WPakzI7t-72" target="3wQzCLE45Nl8WPakzI7t-22" edge="1">
          <mxGeometry relative="1" as="geometry" />
        </mxCell>
        <mxCell id="3wQzCLE45Nl8WPakzI7t-72" value="" style="verticalLabelPosition=bottom;html=1;verticalAlign=top;align=center;strokeColor=none;fillColor=#00BEF2;shape=mxgraph.azure.laptop;pointerEvents=1;" parent="1" vertex="1">
          <mxGeometry x="1120" y="150" width="50" height="30" as="geometry" />
        </mxCell>
        <mxCell id="lTsZ9QhnL7NKHDbEhiwh-4" value="New" style="text;html=1;align=center;verticalAlign=middle;whiteSpace=wrap;rounded=0;fillColor=#ffff88;strokeColor=#36393d;" vertex="1" parent="1">
          <mxGeometry x="900" y="-190" width="60" height="30" as="geometry" />
        </mxCell>
      </root>
    </mxGraphModel>
  </diagram>
</mxfile>
